<mxfile host="app.diagrams.net" modified="2021-03-15T03:54:17.513Z" agent="5.0 (Macintosh; Intel Mac OS X 10_15_7) AppleWebKit/537.36 (KHTML, like Gecko) Chrome/88.0.4324.192 Safari/537.36" etag="bY1_NKkyJ0Y6v93WMfff" version="14.2.9" type="github">
  <diagram id="C5RBs43oDa-KdzZeNtuy" name="Page-1">
    <mxGraphModel dx="2178" dy="1896" grid="1" gridSize="10" guides="1" tooltips="1" connect="1" arrows="1" fold="1" page="1" pageScale="1" pageWidth="827" pageHeight="1169" math="0" shadow="0">
      <root>
        <mxCell id="WIyWlLk6GJQsqaUBKTNV-0" />
        <mxCell id="WIyWlLk6GJQsqaUBKTNV-1" parent="WIyWlLk6GJQsqaUBKTNV-0" />
        <mxCell id="WIyWlLk6GJQsqaUBKTNV-2" value="" style="rounded=0;html=1;jettySize=auto;orthogonalLoop=1;fontSize=11;endArrow=block;endFill=0;endSize=8;strokeWidth=1;shadow=0;labelBackgroundColor=none;edgeStyle=orthogonalEdgeStyle;" parent="WIyWlLk6GJQsqaUBKTNV-1" source="WIyWlLk6GJQsqaUBKTNV-3" target="WIyWlLk6GJQsqaUBKTNV-6" edge="1">
          <mxGeometry relative="1" as="geometry" />
        </mxCell>
        <mxCell id="WIyWlLk6GJQsqaUBKTNV-3" value="进入教室" style="rounded=1;whiteSpace=wrap;html=1;fontSize=12;glass=0;strokeWidth=1;shadow=0;" parent="WIyWlLk6GJQsqaUBKTNV-1" vertex="1">
          <mxGeometry x="160" y="80" width="120" height="40" as="geometry" />
        </mxCell>
        <mxCell id="WIyWlLk6GJQsqaUBKTNV-4" value="NO" style="rounded=0;html=1;jettySize=auto;orthogonalLoop=1;fontSize=11;endArrow=block;endFill=0;endSize=8;strokeWidth=1;shadow=0;labelBackgroundColor=none;edgeStyle=orthogonalEdgeStyle;" parent="WIyWlLk6GJQsqaUBKTNV-1" source="WIyWlLk6GJQsqaUBKTNV-6" target="WIyWlLk6GJQsqaUBKTNV-10" edge="1">
          <mxGeometry y="20" relative="1" as="geometry">
            <mxPoint as="offset" />
          </mxGeometry>
        </mxCell>
        <mxCell id="WIyWlLk6GJQsqaUBKTNV-5" value="YES" style="edgeStyle=orthogonalEdgeStyle;rounded=0;html=1;jettySize=auto;orthogonalLoop=1;fontSize=11;endArrow=block;endFill=0;endSize=8;strokeWidth=1;shadow=0;labelBackgroundColor=none;" parent="WIyWlLk6GJQsqaUBKTNV-1" source="WIyWlLk6GJQsqaUBKTNV-6" target="WIyWlLk6GJQsqaUBKTNV-7" edge="1">
          <mxGeometry y="10" relative="1" as="geometry">
            <mxPoint as="offset" />
          </mxGeometry>
        </mxCell>
        <mxCell id="WIyWlLk6GJQsqaUBKTNV-6" value="设备是否在黑名单?" style="rhombus;whiteSpace=wrap;html=1;shadow=0;fontFamily=Helvetica;fontSize=12;align=center;strokeWidth=1;spacing=6;spacingTop=-4;" parent="WIyWlLk6GJQsqaUBKTNV-1" vertex="1">
          <mxGeometry x="150" y="170" width="140" height="80" as="geometry" />
        </mxCell>
        <mxCell id="WIyWlLk6GJQsqaUBKTNV-7" value="弹框提示“被拉黑设备，不能进入教室”" style="rounded=1;whiteSpace=wrap;html=1;fontSize=12;glass=0;strokeWidth=1;shadow=0;" parent="WIyWlLk6GJQsqaUBKTNV-1" vertex="1">
          <mxGeometry x="320" y="190" width="120" height="40" as="geometry" />
        </mxCell>
        <mxCell id="WIyWlLk6GJQsqaUBKTNV-8" value="YES" style="rounded=0;html=1;jettySize=auto;orthogonalLoop=1;fontSize=11;endArrow=block;endFill=0;endSize=8;strokeWidth=1;shadow=0;labelBackgroundColor=none;edgeStyle=orthogonalEdgeStyle;entryX=0.5;entryY=0;entryDx=0;entryDy=0;" parent="WIyWlLk6GJQsqaUBKTNV-1" source="WIyWlLk6GJQsqaUBKTNV-10" target="pgfFneC329QzfK9LFgI8-18" edge="1">
          <mxGeometry x="0.3333" y="20" relative="1" as="geometry">
            <mxPoint as="offset" />
            <mxPoint x="220" y="430" as="targetPoint" />
          </mxGeometry>
        </mxCell>
        <mxCell id="WIyWlLk6GJQsqaUBKTNV-9" value="NO" style="edgeStyle=orthogonalEdgeStyle;rounded=0;html=1;jettySize=auto;orthogonalLoop=1;fontSize=11;endArrow=block;endFill=0;endSize=8;strokeWidth=1;shadow=0;labelBackgroundColor=none;" parent="WIyWlLk6GJQsqaUBKTNV-1" source="WIyWlLk6GJQsqaUBKTNV-10" target="WIyWlLk6GJQsqaUBKTNV-12" edge="1">
          <mxGeometry y="10" relative="1" as="geometry">
            <mxPoint as="offset" />
          </mxGeometry>
        </mxCell>
        <mxCell id="WIyWlLk6GJQsqaUBKTNV-10" value="获取摄像头权限、麦克风权限?" style="rhombus;whiteSpace=wrap;html=1;shadow=0;fontFamily=Helvetica;fontSize=12;align=center;strokeWidth=1;spacing=6;spacingTop=10;spacingLeft=20;spacingRight=20;" parent="WIyWlLk6GJQsqaUBKTNV-1" vertex="1">
          <mxGeometry x="150" y="290" width="140" height="80" as="geometry" />
        </mxCell>
        <mxCell id="WIyWlLk6GJQsqaUBKTNV-11" value="进入课堂&lt;br&gt;ZMKMainRoomController" style="rounded=1;whiteSpace=wrap;html=1;fontSize=12;glass=0;strokeWidth=1;shadow=0;" parent="WIyWlLk6GJQsqaUBKTNV-1" vertex="1">
          <mxGeometry x="130" y="1530" width="180" height="40" as="geometry" />
        </mxCell>
        <mxCell id="WIyWlLk6GJQsqaUBKTNV-12" value="弹框提示无摄像头、麦克风权限" style="rounded=1;whiteSpace=wrap;html=1;fontSize=12;glass=0;strokeWidth=1;shadow=0;" parent="WIyWlLk6GJQsqaUBKTNV-1" vertex="1">
          <mxGeometry x="320" y="310" width="120" height="40" as="geometry" />
        </mxCell>
        <mxCell id="pgfFneC329QzfK9LFgI8-3" style="edgeStyle=orthogonalEdgeStyle;rounded=0;orthogonalLoop=1;jettySize=auto;html=1;entryX=0;entryY=0.5;entryDx=0;entryDy=0;" parent="WIyWlLk6GJQsqaUBKTNV-1" source="pgfFneC329QzfK9LFgI8-0" target="pgfFneC329QzfK9LFgI8-2" edge="1">
          <mxGeometry relative="1" as="geometry" />
        </mxCell>
        <mxCell id="pgfFneC329QzfK9LFgI8-9" value="YES" style="edgeLabel;html=1;align=center;verticalAlign=middle;resizable=0;points=[];" parent="pgfFneC329QzfK9LFgI8-3" vertex="1" connectable="0">
          <mxGeometry x="-0.0667" y="-2" relative="1" as="geometry">
            <mxPoint as="offset" />
          </mxGeometry>
        </mxCell>
        <mxCell id="pgfFneC329QzfK9LFgI8-6" style="edgeStyle=orthogonalEdgeStyle;rounded=0;orthogonalLoop=1;jettySize=auto;html=1;exitX=0.5;exitY=1;exitDx=0;exitDy=0;entryX=0.5;entryY=0.125;entryDx=0;entryDy=0;entryPerimeter=0;" parent="WIyWlLk6GJQsqaUBKTNV-1" source="pgfFneC329QzfK9LFgI8-18" target="pgfFneC329QzfK9LFgI8-5" edge="1">
          <mxGeometry relative="1" as="geometry">
            <mxPoint x="220" y="490" as="sourcePoint" />
          </mxGeometry>
        </mxCell>
        <mxCell id="pgfFneC329QzfK9LFgI8-0" value="检测网络：当前无网？" style="rhombus;whiteSpace=wrap;html=1;shadow=0;fontFamily=Helvetica;fontSize=12;align=center;strokeWidth=1;spacing=6;spacingTop=10;spacingLeft=20;spacingRight=20;" parent="WIyWlLk6GJQsqaUBKTNV-1" vertex="1">
          <mxGeometry x="360" y="540" width="140" height="80" as="geometry" />
        </mxCell>
        <mxCell id="pgfFneC329QzfK9LFgI8-2" value="弹框提示“没有网络，不能进入教室”" style="rounded=1;whiteSpace=wrap;html=1;fontSize=12;glass=0;strokeWidth=1;shadow=0;" parent="WIyWlLk6GJQsqaUBKTNV-1" vertex="1">
          <mxGeometry x="560" y="560" width="120" height="40" as="geometry" />
        </mxCell>
        <mxCell id="pgfFneC329QzfK9LFgI8-21" value="" style="edgeStyle=orthogonalEdgeStyle;rounded=0;orthogonalLoop=1;jettySize=auto;html=1;entryX=0.5;entryY=0;entryDx=0;entryDy=0;" parent="WIyWlLk6GJQsqaUBKTNV-1" source="pgfFneC329QzfK9LFgI8-5" target="pgfFneC329QzfK9LFgI8-24" edge="1">
          <mxGeometry relative="1" as="geometry">
            <mxPoint x="220" y="720" as="targetPoint" />
          </mxGeometry>
        </mxCell>
        <mxCell id="pgfFneC329QzfK9LFgI8-5" value="检测网络：WIFI？" style="rhombus;whiteSpace=wrap;html=1;shadow=0;fontFamily=Helvetica;fontSize=12;align=center;strokeWidth=1;spacing=6;spacingTop=10;spacingLeft=20;spacingRight=20;" parent="WIyWlLk6GJQsqaUBKTNV-1" vertex="1">
          <mxGeometry x="150" y="540" width="140" height="80" as="geometry" />
        </mxCell>
        <mxCell id="pgfFneC329QzfK9LFgI8-11" style="edgeStyle=orthogonalEdgeStyle;rounded=0;orthogonalLoop=1;jettySize=auto;html=1;entryX=0.5;entryY=0;entryDx=0;entryDy=0;exitX=0;exitY=0.5;exitDx=0;exitDy=0;" parent="WIyWlLk6GJQsqaUBKTNV-1" source="pgfFneC329QzfK9LFgI8-18" target="pgfFneC329QzfK9LFgI8-10" edge="1">
          <mxGeometry relative="1" as="geometry">
            <mxPoint x="170" y="460" as="sourcePoint" />
          </mxGeometry>
        </mxCell>
        <mxCell id="pgfFneC329QzfK9LFgI8-14" style="edgeStyle=orthogonalEdgeStyle;rounded=0;orthogonalLoop=1;jettySize=auto;html=1;entryX=0.5;entryY=0;entryDx=0;entryDy=0;" parent="WIyWlLk6GJQsqaUBKTNV-1" source="pgfFneC329QzfK9LFgI8-10" target="pgfFneC329QzfK9LFgI8-13" edge="1">
          <mxGeometry relative="1" as="geometry" />
        </mxCell>
        <mxCell id="pgfFneC329QzfK9LFgI8-10" value="检测网络：2G/3G ？" style="rhombus;whiteSpace=wrap;html=1;shadow=0;fontFamily=Helvetica;fontSize=12;align=center;strokeWidth=1;spacing=6;spacingTop=10;spacingLeft=20;spacingRight=20;" parent="WIyWlLk6GJQsqaUBKTNV-1" vertex="1">
          <mxGeometry x="-70" y="545" width="140" height="80" as="geometry" />
        </mxCell>
        <mxCell id="pgfFneC329QzfK9LFgI8-16" style="edgeStyle=orthogonalEdgeStyle;rounded=0;orthogonalLoop=1;jettySize=auto;html=1;" parent="WIyWlLk6GJQsqaUBKTNV-1" source="pgfFneC329QzfK9LFgI8-13" target="pgfFneC329QzfK9LFgI8-15" edge="1">
          <mxGeometry relative="1" as="geometry" />
        </mxCell>
        <mxCell id="pgfFneC329QzfK9LFgI8-17" value="NO" style="edgeLabel;html=1;align=center;verticalAlign=middle;resizable=0;points=[];" parent="pgfFneC329QzfK9LFgI8-16" vertex="1" connectable="0">
          <mxGeometry x="-0.1714" y="-1" relative="1" as="geometry">
            <mxPoint as="offset" />
          </mxGeometry>
        </mxCell>
        <mxCell id="pgfFneC329QzfK9LFgI8-22" style="edgeStyle=orthogonalEdgeStyle;rounded=0;orthogonalLoop=1;jettySize=auto;html=1;entryX=0;entryY=0.5;entryDx=0;entryDy=0;" parent="WIyWlLk6GJQsqaUBKTNV-1" source="pgfFneC329QzfK9LFgI8-13" target="pgfFneC329QzfK9LFgI8-24" edge="1">
          <mxGeometry relative="1" as="geometry">
            <mxPoint x="160" y="740" as="targetPoint" />
          </mxGeometry>
        </mxCell>
        <mxCell id="pgfFneC329QzfK9LFgI8-23" value="YES" style="edgeLabel;html=1;align=center;verticalAlign=middle;resizable=0;points=[];" parent="pgfFneC329QzfK9LFgI8-22" vertex="1" connectable="0">
          <mxGeometry x="-0.0889" y="-1" relative="1" as="geometry">
            <mxPoint as="offset" />
          </mxGeometry>
        </mxCell>
        <mxCell id="pgfFneC329QzfK9LFgI8-13" value="弹框选择：是否消耗流量进入教室 ？" style="rhombus;whiteSpace=wrap;html=1;shadow=0;fontFamily=Helvetica;fontSize=12;align=center;strokeWidth=1;spacing=6;spacingTop=10;spacingLeft=20;spacingRight=20;" parent="WIyWlLk6GJQsqaUBKTNV-1" vertex="1">
          <mxGeometry x="-70" y="700" width="140" height="80" as="geometry" />
        </mxCell>
        <mxCell id="pgfFneC329QzfK9LFgI8-15" value="程序终止" style="rounded=1;whiteSpace=wrap;html=1;fontSize=12;glass=0;strokeWidth=1;shadow=0;" parent="WIyWlLk6GJQsqaUBKTNV-1" vertex="1">
          <mxGeometry x="-260" y="720" width="120" height="40" as="geometry" />
        </mxCell>
        <mxCell id="pgfFneC329QzfK9LFgI8-19" style="edgeStyle=orthogonalEdgeStyle;rounded=0;orthogonalLoop=1;jettySize=auto;html=1;entryX=0.5;entryY=0;entryDx=0;entryDy=0;" parent="WIyWlLk6GJQsqaUBKTNV-1" source="pgfFneC329QzfK9LFgI8-18" target="pgfFneC329QzfK9LFgI8-0" edge="1">
          <mxGeometry relative="1" as="geometry" />
        </mxCell>
        <mxCell id="pgfFneC329QzfK9LFgI8-18" value="检测网络状态" style="rounded=1;whiteSpace=wrap;html=1;fontSize=12;glass=0;strokeWidth=1;shadow=0;" parent="WIyWlLk6GJQsqaUBKTNV-1" vertex="1">
          <mxGeometry x="160" y="420" width="120" height="40" as="geometry" />
        </mxCell>
        <mxCell id="pgfFneC329QzfK9LFgI8-28" style="edgeStyle=orthogonalEdgeStyle;rounded=0;orthogonalLoop=1;jettySize=auto;html=1;entryX=0;entryY=0.5;entryDx=0;entryDy=0;" parent="WIyWlLk6GJQsqaUBKTNV-1" source="pgfFneC329QzfK9LFgI8-24" target="pgfFneC329QzfK9LFgI8-25" edge="1">
          <mxGeometry relative="1" as="geometry" />
        </mxCell>
        <mxCell id="pgfFneC329QzfK9LFgI8-29" style="edgeStyle=orthogonalEdgeStyle;rounded=0;orthogonalLoop=1;jettySize=auto;html=1;entryX=0;entryY=0.5;entryDx=0;entryDy=0;" parent="WIyWlLk6GJQsqaUBKTNV-1" source="pgfFneC329QzfK9LFgI8-24" target="pgfFneC329QzfK9LFgI8-26" edge="1">
          <mxGeometry relative="1" as="geometry" />
        </mxCell>
        <mxCell id="pgfFneC329QzfK9LFgI8-30" style="edgeStyle=orthogonalEdgeStyle;rounded=0;orthogonalLoop=1;jettySize=auto;html=1;entryX=0;entryY=0.5;entryDx=0;entryDy=0;" parent="WIyWlLk6GJQsqaUBKTNV-1" source="pgfFneC329QzfK9LFgI8-24" target="pgfFneC329QzfK9LFgI8-27" edge="1">
          <mxGeometry relative="1" as="geometry" />
        </mxCell>
        <mxCell id="pgfFneC329QzfK9LFgI8-31" value="校验失败" style="edgeLabel;html=1;align=center;verticalAlign=middle;resizable=0;points=[];" parent="pgfFneC329QzfK9LFgI8-30" vertex="1" connectable="0">
          <mxGeometry x="-0.8462" relative="1" as="geometry">
            <mxPoint x="15" as="offset" />
          </mxGeometry>
        </mxCell>
        <mxCell id="pgfFneC329QzfK9LFgI8-33" style="edgeStyle=orthogonalEdgeStyle;rounded=0;orthogonalLoop=1;jettySize=auto;html=1;entryX=0.5;entryY=0;entryDx=0;entryDy=0;" parent="WIyWlLk6GJQsqaUBKTNV-1" source="pgfFneC329QzfK9LFgI8-24" target="pgfFneC329QzfK9LFgI8-32" edge="1">
          <mxGeometry relative="1" as="geometry" />
        </mxCell>
        <mxCell id="pgfFneC329QzfK9LFgI8-34" value="校验通过" style="edgeLabel;html=1;align=center;verticalAlign=middle;resizable=0;points=[];" parent="pgfFneC329QzfK9LFgI8-33" vertex="1" connectable="0">
          <mxGeometry x="-0.225" relative="1" as="geometry">
            <mxPoint as="offset" />
          </mxGeometry>
        </mxCell>
        <mxCell id="pgfFneC329QzfK9LFgI8-24" value="后端校验？" style="rhombus;whiteSpace=wrap;html=1;shadow=0;fontFamily=Helvetica;fontSize=12;align=center;strokeWidth=1;spacing=6;spacingTop=0;spacingLeft=20;spacingRight=20;" parent="WIyWlLk6GJQsqaUBKTNV-1" vertex="1">
          <mxGeometry x="150" y="710" width="140" height="60" as="geometry" />
        </mxCell>
        <mxCell id="pgfFneC329QzfK9LFgI8-25" value="系统版本低" style="rounded=1;whiteSpace=wrap;html=1;fontSize=12;glass=0;strokeWidth=1;shadow=0;" parent="WIyWlLk6GJQsqaUBKTNV-1" vertex="1">
          <mxGeometry x="420" y="670" width="130" height="30" as="geometry" />
        </mxCell>
        <mxCell id="pgfFneC329QzfK9LFgI8-26" value="迟到" style="rounded=1;whiteSpace=wrap;html=1;fontSize=12;glass=0;strokeWidth=1;shadow=0;" parent="WIyWlLk6GJQsqaUBKTNV-1" vertex="1">
          <mxGeometry x="420" y="725" width="130" height="30" as="geometry" />
        </mxCell>
        <mxCell id="pgfFneC329QzfK9LFgI8-27" value="通信数据有误" style="rounded=1;whiteSpace=wrap;html=1;fontSize=12;glass=0;strokeWidth=1;shadow=0;" parent="WIyWlLk6GJQsqaUBKTNV-1" vertex="1">
          <mxGeometry x="420" y="790" width="130" height="30" as="geometry" />
        </mxCell>
        <mxCell id="pgfFneC329QzfK9LFgI8-36" style="edgeStyle=orthogonalEdgeStyle;rounded=0;orthogonalLoop=1;jettySize=auto;html=1;" parent="WIyWlLk6GJQsqaUBKTNV-1" source="pgfFneC329QzfK9LFgI8-32" target="pgfFneC329QzfK9LFgI8-35" edge="1">
          <mxGeometry relative="1" as="geometry" />
        </mxCell>
        <mxCell id="pgfFneC329QzfK9LFgI8-37" value="YES" style="edgeLabel;html=1;align=center;verticalAlign=middle;resizable=0;points=[];" parent="pgfFneC329QzfK9LFgI8-36" vertex="1" connectable="0">
          <mxGeometry x="-0.1556" y="-2" relative="1" as="geometry">
            <mxPoint as="offset" />
          </mxGeometry>
        </mxCell>
        <mxCell id="pgfFneC329QzfK9LFgI8-39" style="edgeStyle=orthogonalEdgeStyle;rounded=0;orthogonalLoop=1;jettySize=auto;html=1;" parent="WIyWlLk6GJQsqaUBKTNV-1" source="pgfFneC329QzfK9LFgI8-32" target="pgfFneC329QzfK9LFgI8-38" edge="1">
          <mxGeometry relative="1" as="geometry" />
        </mxCell>
        <mxCell id="pgfFneC329QzfK9LFgI8-40" value="NO" style="edgeLabel;html=1;align=center;verticalAlign=middle;resizable=0;points=[];" parent="pgfFneC329QzfK9LFgI8-39" vertex="1" connectable="0">
          <mxGeometry x="-0.3556" y="1" relative="1" as="geometry">
            <mxPoint as="offset" />
          </mxGeometry>
        </mxCell>
        <mxCell id="pgfFneC329QzfK9LFgI8-32" value="低配置设备？" style="rhombus;whiteSpace=wrap;html=1;shadow=0;fontFamily=Helvetica;fontSize=12;align=center;strokeWidth=1;spacing=6;spacingTop=0;spacingLeft=20;spacingRight=20;" parent="WIyWlLk6GJQsqaUBKTNV-1" vertex="1">
          <mxGeometry x="150" y="850" width="140" height="60" as="geometry" />
        </mxCell>
        <mxCell id="pgfFneC329QzfK9LFgI8-41" style="edgeStyle=orthogonalEdgeStyle;rounded=0;orthogonalLoop=1;jettySize=auto;html=1;entryX=0;entryY=0.5;entryDx=0;entryDy=0;" parent="WIyWlLk6GJQsqaUBKTNV-1" source="pgfFneC329QzfK9LFgI8-35" target="pgfFneC329QzfK9LFgI8-38" edge="1">
          <mxGeometry relative="1" as="geometry">
            <Array as="points">
              <mxPoint y="1020" />
            </Array>
          </mxGeometry>
        </mxCell>
        <mxCell id="pgfFneC329QzfK9LFgI8-35" value="弹框提示“配置过低，建议更换高配置设备”" style="rounded=1;whiteSpace=wrap;html=1;fontSize=12;glass=0;strokeWidth=1;shadow=0;" parent="WIyWlLk6GJQsqaUBKTNV-1" vertex="1">
          <mxGeometry x="-60" y="860" width="120" height="40" as="geometry" />
        </mxCell>
        <mxCell id="pgfFneC329QzfK9LFgI8-44" style="edgeStyle=orthogonalEdgeStyle;rounded=0;orthogonalLoop=1;jettySize=auto;html=1;entryX=0.5;entryY=0;entryDx=0;entryDy=0;" parent="WIyWlLk6GJQsqaUBKTNV-1" source="pgfFneC329QzfK9LFgI8-38" target="pgfFneC329QzfK9LFgI8-43" edge="1">
          <mxGeometry relative="1" as="geometry" />
        </mxCell>
        <mxCell id="pgfFneC329QzfK9LFgI8-38" value="校验、加载本地化课件" style="rounded=1;whiteSpace=wrap;html=1;fontSize=12;glass=0;strokeWidth=1;shadow=0;" parent="WIyWlLk6GJQsqaUBKTNV-1" vertex="1">
          <mxGeometry x="160" y="1000" width="120" height="40" as="geometry" />
        </mxCell>
        <mxCell id="pgfFneC329QzfK9LFgI8-46" style="edgeStyle=orthogonalEdgeStyle;rounded=0;orthogonalLoop=1;jettySize=auto;html=1;entryX=0;entryY=0.5;entryDx=0;entryDy=0;" parent="WIyWlLk6GJQsqaUBKTNV-1" source="pgfFneC329QzfK9LFgI8-43" target="pgfFneC329QzfK9LFgI8-45" edge="1">
          <mxGeometry relative="1" as="geometry" />
        </mxCell>
        <mxCell id="pgfFneC329QzfK9LFgI8-47" value="NO" style="edgeLabel;html=1;align=center;verticalAlign=middle;resizable=0;points=[];" parent="pgfFneC329QzfK9LFgI8-46" vertex="1" connectable="0">
          <mxGeometry x="-0.1691" y="2" relative="1" as="geometry">
            <mxPoint x="-1" as="offset" />
          </mxGeometry>
        </mxCell>
        <mxCell id="pgfFneC329QzfK9LFgI8-49" style="edgeStyle=orthogonalEdgeStyle;rounded=0;orthogonalLoop=1;jettySize=auto;html=1;entryX=0.5;entryY=0;entryDx=0;entryDy=0;" parent="WIyWlLk6GJQsqaUBKTNV-1" source="pgfFneC329QzfK9LFgI8-43" target="pgfFneC329QzfK9LFgI8-48" edge="1">
          <mxGeometry relative="1" as="geometry" />
        </mxCell>
        <mxCell id="pgfFneC329QzfK9LFgI8-54" value="YES" style="edgeLabel;html=1;align=center;verticalAlign=middle;resizable=0;points=[];" parent="pgfFneC329QzfK9LFgI8-49" vertex="1" connectable="0">
          <mxGeometry x="-0.0255" y="1" relative="1" as="geometry">
            <mxPoint as="offset" />
          </mxGeometry>
        </mxCell>
        <mxCell id="pgfFneC329QzfK9LFgI8-43" value="获取课堂学生信息" style="rhombus;whiteSpace=wrap;html=1;shadow=0;fontFamily=Helvetica;fontSize=12;align=center;strokeWidth=1;spacing=6;spacingTop=0;spacingLeft=20;spacingRight=20;" parent="WIyWlLk6GJQsqaUBKTNV-1" vertex="1">
          <mxGeometry x="150" y="1120" width="140" height="60" as="geometry" />
        </mxCell>
        <mxCell id="pgfFneC329QzfK9LFgI8-45" value="获取失败" style="rounded=1;whiteSpace=wrap;html=1;fontSize=12;glass=0;strokeWidth=1;shadow=0;" parent="WIyWlLk6GJQsqaUBKTNV-1" vertex="1">
          <mxGeometry x="380" y="1135" width="130" height="30" as="geometry" />
        </mxCell>
        <mxCell id="pgfFneC329QzfK9LFgI8-51" value="YES" style="edgeStyle=orthogonalEdgeStyle;rounded=0;orthogonalLoop=1;jettySize=auto;html=1;" parent="WIyWlLk6GJQsqaUBKTNV-1" source="pgfFneC329QzfK9LFgI8-48" target="pgfFneC329QzfK9LFgI8-50" edge="1">
          <mxGeometry relative="1" as="geometry" />
        </mxCell>
        <mxCell id="pgfFneC329QzfK9LFgI8-53" style="edgeStyle=orthogonalEdgeStyle;rounded=0;orthogonalLoop=1;jettySize=auto;html=1;entryX=0.5;entryY=0;entryDx=0;entryDy=0;" parent="WIyWlLk6GJQsqaUBKTNV-1" source="pgfFneC329QzfK9LFgI8-48" target="pgfFneC329QzfK9LFgI8-52" edge="1">
          <mxGeometry relative="1" as="geometry" />
        </mxCell>
        <mxCell id="pgfFneC329QzfK9LFgI8-55" value="NO" style="edgeLabel;html=1;align=center;verticalAlign=middle;resizable=0;points=[];" parent="pgfFneC329QzfK9LFgI8-53" vertex="1" connectable="0">
          <mxGeometry x="-0.0639" y="2" relative="1" as="geometry">
            <mxPoint as="offset" />
          </mxGeometry>
        </mxCell>
        <mxCell id="pgfFneC329QzfK9LFgI8-48" value="应用是否在后台？" style="rhombus;whiteSpace=wrap;html=1;shadow=0;fontFamily=Helvetica;fontSize=12;align=center;strokeWidth=1;spacing=6;spacingTop=0;spacingLeft=20;spacingRight=20;" parent="WIyWlLk6GJQsqaUBKTNV-1" vertex="1">
          <mxGeometry x="150" y="1240" width="140" height="60" as="geometry" />
        </mxCell>
        <mxCell id="pgfFneC329QzfK9LFgI8-50" value="App 状态不对" style="rounded=1;whiteSpace=wrap;html=1;fontSize=12;glass=0;strokeWidth=1;shadow=0;" parent="WIyWlLk6GJQsqaUBKTNV-1" vertex="1">
          <mxGeometry x="380" y="1255" width="130" height="30" as="geometry" />
        </mxCell>
        <mxCell id="pgfFneC329QzfK9LFgI8-57" value="YES" style="edgeStyle=orthogonalEdgeStyle;rounded=0;orthogonalLoop=1;jettySize=auto;html=1;exitX=1;exitY=0.5;exitDx=0;exitDy=0;" parent="WIyWlLk6GJQsqaUBKTNV-1" source="pgfFneC329QzfK9LFgI8-52" target="pgfFneC329QzfK9LFgI8-56" edge="1">
          <mxGeometry relative="1" as="geometry" />
        </mxCell>
        <mxCell id="pgfFneC329QzfK9LFgI8-58" style="edgeStyle=orthogonalEdgeStyle;rounded=0;orthogonalLoop=1;jettySize=auto;html=1;entryX=0.5;entryY=0;entryDx=0;entryDy=0;" parent="WIyWlLk6GJQsqaUBKTNV-1" source="pgfFneC329QzfK9LFgI8-52" target="WIyWlLk6GJQsqaUBKTNV-11" edge="1">
          <mxGeometry relative="1" as="geometry" />
        </mxCell>
        <mxCell id="pgfFneC329QzfK9LFgI8-59" value="NO" style="edgeLabel;html=1;align=center;verticalAlign=middle;resizable=0;points=[];" parent="pgfFneC329QzfK9LFgI8-58" vertex="1" connectable="0">
          <mxGeometry x="-0.2866" y="-5" relative="1" as="geometry">
            <mxPoint as="offset" />
          </mxGeometry>
        </mxCell>
        <mxCell id="pgfFneC329QzfK9LFgI8-52" value="是否存在课堂？" style="rhombus;whiteSpace=wrap;html=1;shadow=0;fontFamily=Helvetica;fontSize=12;align=center;strokeWidth=1;spacing=6;spacingTop=0;spacingLeft=20;spacingRight=20;" parent="WIyWlLk6GJQsqaUBKTNV-1" vertex="1">
          <mxGeometry x="150" y="1370" width="140" height="60" as="geometry" />
        </mxCell>
        <mxCell id="pgfFneC329QzfK9LFgI8-56" value="重复进入教室" style="rounded=1;whiteSpace=wrap;html=1;fontSize=12;glass=0;strokeWidth=1;shadow=0;" parent="WIyWlLk6GJQsqaUBKTNV-1" vertex="1">
          <mxGeometry x="390" y="1385" width="130" height="30" as="geometry" />
        </mxCell>
        <mxCell id="ccX7Cr4w7bAmjQZFq0Yj-393" style="edgeStyle=orthogonalEdgeStyle;rounded=0;orthogonalLoop=1;jettySize=auto;html=1;entryX=0.5;entryY=0;entryDx=0;entryDy=0;" edge="1" parent="WIyWlLk6GJQsqaUBKTNV-1" source="ccX7Cr4w7bAmjQZFq0Yj-324" target="ccX7Cr4w7bAmjQZFq0Yj-392">
          <mxGeometry relative="1" as="geometry" />
        </mxCell>
        <mxCell id="ccX7Cr4w7bAmjQZFq0Yj-324" value="进入教室&lt;br&gt;&lt;div style=&quot;font-size: 13px&quot;&gt;&lt;font style=&quot;font-size: 13px ; background-color: rgb(255 , 51 , 51)&quot; color=&quot;#ffffff&quot;&gt;ZMkGotoClassroom&lt;/font&gt;&lt;/div&gt;&lt;div style=&quot;font-size: 13px&quot;&gt;&lt;span style=&quot;background-color: rgb(230 , 255 , 204)&quot;&gt;&lt;br&gt;&lt;/span&gt;&lt;/div&gt;" style="rounded=1;whiteSpace=wrap;html=1;fontSize=12;glass=0;strokeWidth=1;shadow=0;" vertex="1" parent="WIyWlLk6GJQsqaUBKTNV-1">
          <mxGeometry x="1305" y="-330" width="150" height="50" as="geometry" />
        </mxCell>
        <mxCell id="ccX7Cr4w7bAmjQZFq0Yj-325" value="NO" style="rounded=0;html=1;jettySize=auto;orthogonalLoop=1;fontSize=11;endArrow=block;endFill=0;endSize=8;strokeWidth=1;shadow=0;labelBackgroundColor=none;edgeStyle=orthogonalEdgeStyle;entryX=0.5;entryY=0;entryDx=0;entryDy=0;" edge="1" parent="WIyWlLk6GJQsqaUBKTNV-1" source="ccX7Cr4w7bAmjQZFq0Yj-327" target="ccX7Cr4w7bAmjQZFq0Yj-395">
          <mxGeometry y="20" relative="1" as="geometry">
            <mxPoint as="offset" />
            <mxPoint x="1380" y="-10" as="targetPoint" />
          </mxGeometry>
        </mxCell>
        <mxCell id="ccX7Cr4w7bAmjQZFq0Yj-326" value="YES" style="edgeStyle=orthogonalEdgeStyle;rounded=0;html=1;jettySize=auto;orthogonalLoop=1;fontSize=11;endArrow=block;endFill=0;endSize=8;strokeWidth=1;shadow=0;labelBackgroundColor=none;" edge="1" parent="WIyWlLk6GJQsqaUBKTNV-1" source="ccX7Cr4w7bAmjQZFq0Yj-327" target="ccX7Cr4w7bAmjQZFq0Yj-328">
          <mxGeometry y="10" relative="1" as="geometry">
            <mxPoint as="offset" />
          </mxGeometry>
        </mxCell>
        <mxCell id="ccX7Cr4w7bAmjQZFq0Yj-327" value="设备是否在黑名单?" style="rhombus;whiteSpace=wrap;html=1;shadow=0;fontFamily=Helvetica;fontSize=12;align=center;strokeWidth=1;spacing=6;spacingTop=-4;" vertex="1" parent="WIyWlLk6GJQsqaUBKTNV-1">
          <mxGeometry x="1310" y="-140" width="140" height="80" as="geometry" />
        </mxCell>
        <mxCell id="ccX7Cr4w7bAmjQZFq0Yj-328" value="弹框提示“被拉黑设备，不能进入教室”" style="rounded=1;whiteSpace=wrap;html=1;fontSize=12;glass=0;strokeWidth=1;shadow=0;" vertex="1" parent="WIyWlLk6GJQsqaUBKTNV-1">
          <mxGeometry x="1520" y="-120" width="120" height="40" as="geometry" />
        </mxCell>
        <mxCell id="ccX7Cr4w7bAmjQZFq0Yj-329" value="YES" style="rounded=0;html=1;jettySize=auto;orthogonalLoop=1;fontSize=11;endArrow=block;endFill=0;endSize=8;strokeWidth=1;shadow=0;labelBackgroundColor=none;edgeStyle=orthogonalEdgeStyle;entryX=0.5;entryY=0;entryDx=0;entryDy=0;" edge="1" parent="WIyWlLk6GJQsqaUBKTNV-1" source="ccX7Cr4w7bAmjQZFq0Yj-331" target="ccX7Cr4w7bAmjQZFq0Yj-397">
          <mxGeometry x="0.3333" y="20" relative="1" as="geometry">
            <mxPoint as="offset" />
            <mxPoint x="1380" y="200" as="targetPoint" />
          </mxGeometry>
        </mxCell>
        <mxCell id="ccX7Cr4w7bAmjQZFq0Yj-330" value="NO" style="edgeStyle=orthogonalEdgeStyle;rounded=0;html=1;jettySize=auto;orthogonalLoop=1;fontSize=11;endArrow=block;endFill=0;endSize=8;strokeWidth=1;shadow=0;labelBackgroundColor=none;" edge="1" parent="WIyWlLk6GJQsqaUBKTNV-1" source="ccX7Cr4w7bAmjQZFq0Yj-331" target="ccX7Cr4w7bAmjQZFq0Yj-333">
          <mxGeometry y="10" relative="1" as="geometry">
            <mxPoint as="offset" />
          </mxGeometry>
        </mxCell>
        <mxCell id="ccX7Cr4w7bAmjQZFq0Yj-331" value="获取摄像头权限、麦克风权限?" style="rhombus;whiteSpace=wrap;html=1;shadow=0;fontFamily=Helvetica;fontSize=12;align=center;strokeWidth=1;spacing=6;spacingTop=10;spacingLeft=20;spacingRight=20;" vertex="1" parent="WIyWlLk6GJQsqaUBKTNV-1">
          <mxGeometry x="1310" y="70" width="140" height="80" as="geometry" />
        </mxCell>
        <mxCell id="ccX7Cr4w7bAmjQZFq0Yj-332" value="进入课堂&lt;br&gt;ZMKMainRoomController" style="rounded=1;whiteSpace=wrap;html=1;fontSize=12;glass=0;strokeWidth=1;shadow=0;" vertex="1" parent="WIyWlLk6GJQsqaUBKTNV-1">
          <mxGeometry x="1286" y="1245" width="180" height="40" as="geometry" />
        </mxCell>
        <mxCell id="ccX7Cr4w7bAmjQZFq0Yj-333" value="弹框提示无摄像头、麦克风权限" style="rounded=1;whiteSpace=wrap;html=1;fontSize=12;glass=0;strokeWidth=1;shadow=0;" vertex="1" parent="WIyWlLk6GJQsqaUBKTNV-1">
          <mxGeometry x="1520" y="90" width="120" height="40" as="geometry" />
        </mxCell>
        <mxCell id="ccX7Cr4w7bAmjQZFq0Yj-334" style="edgeStyle=orthogonalEdgeStyle;rounded=0;orthogonalLoop=1;jettySize=auto;html=1;entryX=0;entryY=0.5;entryDx=0;entryDy=0;" edge="1" parent="WIyWlLk6GJQsqaUBKTNV-1" source="ccX7Cr4w7bAmjQZFq0Yj-337" target="ccX7Cr4w7bAmjQZFq0Yj-338">
          <mxGeometry relative="1" as="geometry" />
        </mxCell>
        <mxCell id="ccX7Cr4w7bAmjQZFq0Yj-335" value="YES" style="edgeLabel;html=1;align=center;verticalAlign=middle;resizable=0;points=[];" vertex="1" connectable="0" parent="ccX7Cr4w7bAmjQZFq0Yj-334">
          <mxGeometry x="-0.0667" y="-2" relative="1" as="geometry">
            <mxPoint as="offset" />
          </mxGeometry>
        </mxCell>
        <mxCell id="ccX7Cr4w7bAmjQZFq0Yj-336" style="edgeStyle=orthogonalEdgeStyle;rounded=0;orthogonalLoop=1;jettySize=auto;html=1;exitX=0.5;exitY=1;exitDx=0;exitDy=0;entryX=0.5;entryY=0.125;entryDx=0;entryDy=0;entryPerimeter=0;" edge="1" parent="WIyWlLk6GJQsqaUBKTNV-1" source="ccX7Cr4w7bAmjQZFq0Yj-351" target="ccX7Cr4w7bAmjQZFq0Yj-340">
          <mxGeometry relative="1" as="geometry">
            <mxPoint x="1380" y="490" as="sourcePoint" />
          </mxGeometry>
        </mxCell>
        <mxCell id="ccX7Cr4w7bAmjQZFq0Yj-337" value="检测网络：当前无网？" style="rhombus;whiteSpace=wrap;html=1;shadow=0;fontFamily=Helvetica;fontSize=12;align=center;strokeWidth=1;spacing=6;spacingTop=10;spacingLeft=20;spacingRight=20;" vertex="1" parent="WIyWlLk6GJQsqaUBKTNV-1">
          <mxGeometry x="2490" y="650" width="140" height="80" as="geometry" />
        </mxCell>
        <mxCell id="ccX7Cr4w7bAmjQZFq0Yj-338" value="弹框提示“没有网络，不能进入教室”" style="rounded=1;whiteSpace=wrap;html=1;fontSize=12;glass=0;strokeWidth=1;shadow=0;" vertex="1" parent="WIyWlLk6GJQsqaUBKTNV-1">
          <mxGeometry x="2690" y="670" width="120" height="40" as="geometry" />
        </mxCell>
        <mxCell id="ccX7Cr4w7bAmjQZFq0Yj-340" value="检测网络：WIFI？" style="rhombus;whiteSpace=wrap;html=1;shadow=0;fontFamily=Helvetica;fontSize=12;align=center;strokeWidth=1;spacing=6;spacingTop=10;spacingLeft=20;spacingRight=20;" vertex="1" parent="WIyWlLk6GJQsqaUBKTNV-1">
          <mxGeometry x="2280" y="650" width="140" height="80" as="geometry" />
        </mxCell>
        <mxCell id="ccX7Cr4w7bAmjQZFq0Yj-341" style="edgeStyle=orthogonalEdgeStyle;rounded=0;orthogonalLoop=1;jettySize=auto;html=1;entryX=0.5;entryY=0;entryDx=0;entryDy=0;exitX=0;exitY=0.5;exitDx=0;exitDy=0;" edge="1" parent="WIyWlLk6GJQsqaUBKTNV-1" source="ccX7Cr4w7bAmjQZFq0Yj-351" target="ccX7Cr4w7bAmjQZFq0Yj-343">
          <mxGeometry relative="1" as="geometry">
            <mxPoint x="1330" y="460" as="sourcePoint" />
          </mxGeometry>
        </mxCell>
        <mxCell id="ccX7Cr4w7bAmjQZFq0Yj-342" style="edgeStyle=orthogonalEdgeStyle;rounded=0;orthogonalLoop=1;jettySize=auto;html=1;entryX=0.5;entryY=0;entryDx=0;entryDy=0;" edge="1" parent="WIyWlLk6GJQsqaUBKTNV-1" source="ccX7Cr4w7bAmjQZFq0Yj-343" target="ccX7Cr4w7bAmjQZFq0Yj-348">
          <mxGeometry relative="1" as="geometry" />
        </mxCell>
        <mxCell id="ccX7Cr4w7bAmjQZFq0Yj-343" value="检测网络：2G/3G ？" style="rhombus;whiteSpace=wrap;html=1;shadow=0;fontFamily=Helvetica;fontSize=12;align=center;strokeWidth=1;spacing=6;spacingTop=10;spacingLeft=20;spacingRight=20;" vertex="1" parent="WIyWlLk6GJQsqaUBKTNV-1">
          <mxGeometry x="2060" y="655" width="140" height="80" as="geometry" />
        </mxCell>
        <mxCell id="ccX7Cr4w7bAmjQZFq0Yj-344" style="edgeStyle=orthogonalEdgeStyle;rounded=0;orthogonalLoop=1;jettySize=auto;html=1;" edge="1" parent="WIyWlLk6GJQsqaUBKTNV-1" source="ccX7Cr4w7bAmjQZFq0Yj-348" target="ccX7Cr4w7bAmjQZFq0Yj-349">
          <mxGeometry relative="1" as="geometry" />
        </mxCell>
        <mxCell id="ccX7Cr4w7bAmjQZFq0Yj-345" value="NO" style="edgeLabel;html=1;align=center;verticalAlign=middle;resizable=0;points=[];" vertex="1" connectable="0" parent="ccX7Cr4w7bAmjQZFq0Yj-344">
          <mxGeometry x="-0.1714" y="-1" relative="1" as="geometry">
            <mxPoint as="offset" />
          </mxGeometry>
        </mxCell>
        <mxCell id="ccX7Cr4w7bAmjQZFq0Yj-348" value="弹框选择：是否消耗流量进入教室 ？" style="rhombus;whiteSpace=wrap;html=1;shadow=0;fontFamily=Helvetica;fontSize=12;align=center;strokeWidth=1;spacing=6;spacingTop=10;spacingLeft=20;spacingRight=20;" vertex="1" parent="WIyWlLk6GJQsqaUBKTNV-1">
          <mxGeometry x="2060" y="810" width="140" height="80" as="geometry" />
        </mxCell>
        <mxCell id="ccX7Cr4w7bAmjQZFq0Yj-349" value="程序终止" style="rounded=1;whiteSpace=wrap;html=1;fontSize=12;glass=0;strokeWidth=1;shadow=0;" vertex="1" parent="WIyWlLk6GJQsqaUBKTNV-1">
          <mxGeometry x="1870" y="830" width="120" height="40" as="geometry" />
        </mxCell>
        <mxCell id="ccX7Cr4w7bAmjQZFq0Yj-350" style="edgeStyle=orthogonalEdgeStyle;rounded=0;orthogonalLoop=1;jettySize=auto;html=1;entryX=0.5;entryY=0;entryDx=0;entryDy=0;" edge="1" parent="WIyWlLk6GJQsqaUBKTNV-1" source="ccX7Cr4w7bAmjQZFq0Yj-351" target="ccX7Cr4w7bAmjQZFq0Yj-337">
          <mxGeometry relative="1" as="geometry" />
        </mxCell>
        <mxCell id="ccX7Cr4w7bAmjQZFq0Yj-351" value="检测网络状态" style="rounded=1;whiteSpace=wrap;html=1;fontSize=12;glass=0;strokeWidth=1;shadow=0;" vertex="1" parent="WIyWlLk6GJQsqaUBKTNV-1">
          <mxGeometry x="2290" y="530" width="120" height="40" as="geometry" />
        </mxCell>
        <mxCell id="ccX7Cr4w7bAmjQZFq0Yj-352" style="edgeStyle=orthogonalEdgeStyle;rounded=0;orthogonalLoop=1;jettySize=auto;html=1;entryX=0;entryY=0.5;entryDx=0;entryDy=0;" edge="1" parent="WIyWlLk6GJQsqaUBKTNV-1" source="ccX7Cr4w7bAmjQZFq0Yj-358" target="ccX7Cr4w7bAmjQZFq0Yj-359">
          <mxGeometry relative="1" as="geometry" />
        </mxCell>
        <mxCell id="ccX7Cr4w7bAmjQZFq0Yj-353" style="edgeStyle=orthogonalEdgeStyle;rounded=0;orthogonalLoop=1;jettySize=auto;html=1;entryX=0;entryY=0.5;entryDx=0;entryDy=0;" edge="1" parent="WIyWlLk6GJQsqaUBKTNV-1" source="ccX7Cr4w7bAmjQZFq0Yj-358" target="ccX7Cr4w7bAmjQZFq0Yj-360">
          <mxGeometry relative="1" as="geometry" />
        </mxCell>
        <mxCell id="ccX7Cr4w7bAmjQZFq0Yj-354" style="edgeStyle=orthogonalEdgeStyle;rounded=0;orthogonalLoop=1;jettySize=auto;html=1;entryX=0;entryY=0.5;entryDx=0;entryDy=0;" edge="1" parent="WIyWlLk6GJQsqaUBKTNV-1" source="ccX7Cr4w7bAmjQZFq0Yj-358" target="ccX7Cr4w7bAmjQZFq0Yj-361">
          <mxGeometry relative="1" as="geometry" />
        </mxCell>
        <mxCell id="ccX7Cr4w7bAmjQZFq0Yj-355" value="校验失败" style="edgeLabel;html=1;align=center;verticalAlign=middle;resizable=0;points=[];" vertex="1" connectable="0" parent="ccX7Cr4w7bAmjQZFq0Yj-354">
          <mxGeometry x="-0.8462" relative="1" as="geometry">
            <mxPoint x="15" as="offset" />
          </mxGeometry>
        </mxCell>
        <mxCell id="ccX7Cr4w7bAmjQZFq0Yj-356" style="edgeStyle=orthogonalEdgeStyle;rounded=0;orthogonalLoop=1;jettySize=auto;html=1;entryX=0.5;entryY=0;entryDx=0;entryDy=0;" edge="1" parent="WIyWlLk6GJQsqaUBKTNV-1" source="ccX7Cr4w7bAmjQZFq0Yj-358" target="ccX7Cr4w7bAmjQZFq0Yj-406">
          <mxGeometry relative="1" as="geometry">
            <mxPoint x="1380" y="450" as="targetPoint" />
          </mxGeometry>
        </mxCell>
        <mxCell id="ccX7Cr4w7bAmjQZFq0Yj-357" value="后端校验通过" style="edgeLabel;html=1;align=center;verticalAlign=middle;resizable=0;points=[];" vertex="1" connectable="0" parent="ccX7Cr4w7bAmjQZFq0Yj-356">
          <mxGeometry x="-0.225" relative="1" as="geometry">
            <mxPoint as="offset" />
          </mxGeometry>
        </mxCell>
        <mxCell id="ccX7Cr4w7bAmjQZFq0Yj-358" value="后端校验？" style="rhombus;whiteSpace=wrap;html=1;shadow=0;fontFamily=Helvetica;fontSize=12;align=center;strokeWidth=1;spacing=6;spacingTop=0;spacingLeft=20;spacingRight=20;" vertex="1" parent="WIyWlLk6GJQsqaUBKTNV-1">
          <mxGeometry x="1310" y="290" width="140" height="60" as="geometry" />
        </mxCell>
        <mxCell id="ccX7Cr4w7bAmjQZFq0Yj-401" style="edgeStyle=orthogonalEdgeStyle;rounded=0;orthogonalLoop=1;jettySize=auto;html=1;entryX=0;entryY=0.5;entryDx=0;entryDy=0;" edge="1" parent="WIyWlLk6GJQsqaUBKTNV-1" source="ccX7Cr4w7bAmjQZFq0Yj-359" target="ccX7Cr4w7bAmjQZFq0Yj-400">
          <mxGeometry relative="1" as="geometry" />
        </mxCell>
        <mxCell id="ccX7Cr4w7bAmjQZFq0Yj-359" value="系统版本低" style="rounded=1;whiteSpace=wrap;html=1;fontSize=12;glass=0;strokeWidth=1;shadow=0;" vertex="1" parent="WIyWlLk6GJQsqaUBKTNV-1">
          <mxGeometry x="1590" y="250" width="130" height="30" as="geometry" />
        </mxCell>
        <mxCell id="ccX7Cr4w7bAmjQZFq0Yj-403" style="edgeStyle=orthogonalEdgeStyle;rounded=0;orthogonalLoop=1;jettySize=auto;html=1;entryX=0;entryY=0.5;entryDx=0;entryDy=0;" edge="1" parent="WIyWlLk6GJQsqaUBKTNV-1" source="ccX7Cr4w7bAmjQZFq0Yj-360" target="ccX7Cr4w7bAmjQZFq0Yj-402">
          <mxGeometry relative="1" as="geometry" />
        </mxCell>
        <mxCell id="ccX7Cr4w7bAmjQZFq0Yj-360" value="迟到" style="rounded=1;whiteSpace=wrap;html=1;fontSize=12;glass=0;strokeWidth=1;shadow=0;" vertex="1" parent="WIyWlLk6GJQsqaUBKTNV-1">
          <mxGeometry x="1590" y="305" width="130" height="30" as="geometry" />
        </mxCell>
        <mxCell id="ccX7Cr4w7bAmjQZFq0Yj-405" style="edgeStyle=orthogonalEdgeStyle;rounded=0;orthogonalLoop=1;jettySize=auto;html=1;entryX=0;entryY=0.5;entryDx=0;entryDy=0;" edge="1" parent="WIyWlLk6GJQsqaUBKTNV-1" source="ccX7Cr4w7bAmjQZFq0Yj-361" target="ccX7Cr4w7bAmjQZFq0Yj-404">
          <mxGeometry relative="1" as="geometry" />
        </mxCell>
        <mxCell id="ccX7Cr4w7bAmjQZFq0Yj-361" value="请求数据有误" style="rounded=1;whiteSpace=wrap;html=1;fontSize=12;glass=0;strokeWidth=1;shadow=0;" vertex="1" parent="WIyWlLk6GJQsqaUBKTNV-1">
          <mxGeometry x="1590" y="370" width="130" height="30" as="geometry" />
        </mxCell>
        <mxCell id="ccX7Cr4w7bAmjQZFq0Yj-362" style="edgeStyle=orthogonalEdgeStyle;rounded=0;orthogonalLoop=1;jettySize=auto;html=1;" edge="1" parent="WIyWlLk6GJQsqaUBKTNV-1" source="ccX7Cr4w7bAmjQZFq0Yj-366" target="ccX7Cr4w7bAmjQZFq0Yj-368">
          <mxGeometry relative="1" as="geometry" />
        </mxCell>
        <mxCell id="ccX7Cr4w7bAmjQZFq0Yj-363" value="YES" style="edgeLabel;html=1;align=center;verticalAlign=middle;resizable=0;points=[];" vertex="1" connectable="0" parent="ccX7Cr4w7bAmjQZFq0Yj-362">
          <mxGeometry x="-0.1556" y="-2" relative="1" as="geometry">
            <mxPoint as="offset" />
          </mxGeometry>
        </mxCell>
        <mxCell id="ccX7Cr4w7bAmjQZFq0Yj-364" style="edgeStyle=orthogonalEdgeStyle;rounded=0;orthogonalLoop=1;jettySize=auto;html=1;entryX=0.5;entryY=0;entryDx=0;entryDy=0;" edge="1" parent="WIyWlLk6GJQsqaUBKTNV-1" source="ccX7Cr4w7bAmjQZFq0Yj-366" target="ccX7Cr4w7bAmjQZFq0Yj-408">
          <mxGeometry relative="1" as="geometry">
            <mxPoint x="1380" y="780" as="targetPoint" />
          </mxGeometry>
        </mxCell>
        <mxCell id="ccX7Cr4w7bAmjQZFq0Yj-365" value="NO" style="edgeLabel;html=1;align=center;verticalAlign=middle;resizable=0;points=[];" vertex="1" connectable="0" parent="ccX7Cr4w7bAmjQZFq0Yj-364">
          <mxGeometry x="-0.3556" y="1" relative="1" as="geometry">
            <mxPoint as="offset" />
          </mxGeometry>
        </mxCell>
        <mxCell id="ccX7Cr4w7bAmjQZFq0Yj-366" value="低配置设备？" style="rhombus;whiteSpace=wrap;html=1;shadow=0;fontFamily=Helvetica;fontSize=12;align=center;strokeWidth=1;spacing=6;spacingTop=0;spacingLeft=20;spacingRight=20;" vertex="1" parent="WIyWlLk6GJQsqaUBKTNV-1">
          <mxGeometry x="1310" y="550" width="140" height="60" as="geometry" />
        </mxCell>
        <mxCell id="ccX7Cr4w7bAmjQZFq0Yj-367" style="edgeStyle=orthogonalEdgeStyle;rounded=0;orthogonalLoop=1;jettySize=auto;html=1;entryX=0;entryY=0.5;entryDx=0;entryDy=0;" edge="1" parent="WIyWlLk6GJQsqaUBKTNV-1" target="ccX7Cr4w7bAmjQZFq0Yj-370">
          <mxGeometry relative="1" as="geometry">
            <Array as="points">
              <mxPoint x="1160" y="1020" />
            </Array>
            <mxPoint x="1100" y="800" as="sourcePoint" />
          </mxGeometry>
        </mxCell>
        <mxCell id="ccX7Cr4w7bAmjQZFq0Yj-409" style="edgeStyle=orthogonalEdgeStyle;rounded=0;orthogonalLoop=1;jettySize=auto;html=1;entryX=0;entryY=0.5;entryDx=0;entryDy=0;" edge="1" parent="WIyWlLk6GJQsqaUBKTNV-1" source="ccX7Cr4w7bAmjQZFq0Yj-368" target="ccX7Cr4w7bAmjQZFq0Yj-408">
          <mxGeometry relative="1" as="geometry" />
        </mxCell>
        <mxCell id="ccX7Cr4w7bAmjQZFq0Yj-368" value="弹框提示“配置过低，建议更换高配置设备”" style="rounded=1;whiteSpace=wrap;html=1;fontSize=12;glass=0;strokeWidth=1;shadow=0;" vertex="1" parent="WIyWlLk6GJQsqaUBKTNV-1">
          <mxGeometry x="1100" y="680" width="120" height="40" as="geometry" />
        </mxCell>
        <mxCell id="ccX7Cr4w7bAmjQZFq0Yj-369" style="edgeStyle=orthogonalEdgeStyle;rounded=0;orthogonalLoop=1;jettySize=auto;html=1;" edge="1" parent="WIyWlLk6GJQsqaUBKTNV-1" source="ccX7Cr4w7bAmjQZFq0Yj-370">
          <mxGeometry relative="1" as="geometry">
            <mxPoint x="1150" y="1240" as="targetPoint" />
          </mxGeometry>
        </mxCell>
        <mxCell id="ccX7Cr4w7bAmjQZFq0Yj-370" value="校验、加载本地化课件" style="rounded=1;whiteSpace=wrap;html=1;fontSize=12;glass=0;strokeWidth=1;shadow=0;" vertex="1" parent="WIyWlLk6GJQsqaUBKTNV-1">
          <mxGeometry x="1010" y="1125" width="120" height="40" as="geometry" />
        </mxCell>
        <mxCell id="ccX7Cr4w7bAmjQZFq0Yj-371" style="edgeStyle=orthogonalEdgeStyle;rounded=0;orthogonalLoop=1;jettySize=auto;html=1;entryX=0;entryY=0.5;entryDx=0;entryDy=0;" edge="1" parent="WIyWlLk6GJQsqaUBKTNV-1" source="ccX7Cr4w7bAmjQZFq0Yj-375" target="ccX7Cr4w7bAmjQZFq0Yj-376">
          <mxGeometry relative="1" as="geometry" />
        </mxCell>
        <mxCell id="ccX7Cr4w7bAmjQZFq0Yj-372" value="NO" style="edgeLabel;html=1;align=center;verticalAlign=middle;resizable=0;points=[];" vertex="1" connectable="0" parent="ccX7Cr4w7bAmjQZFq0Yj-371">
          <mxGeometry x="-0.1691" y="2" relative="1" as="geometry">
            <mxPoint x="-1" as="offset" />
          </mxGeometry>
        </mxCell>
        <mxCell id="ccX7Cr4w7bAmjQZFq0Yj-373" style="edgeStyle=orthogonalEdgeStyle;rounded=0;orthogonalLoop=1;jettySize=auto;html=1;entryX=0.5;entryY=0;entryDx=0;entryDy=0;" edge="1" parent="WIyWlLk6GJQsqaUBKTNV-1" source="ccX7Cr4w7bAmjQZFq0Yj-375" target="ccX7Cr4w7bAmjQZFq0Yj-411">
          <mxGeometry relative="1" as="geometry">
            <mxPoint x="1380" y="920" as="targetPoint" />
          </mxGeometry>
        </mxCell>
        <mxCell id="ccX7Cr4w7bAmjQZFq0Yj-374" value="YES" style="edgeLabel;html=1;align=center;verticalAlign=middle;resizable=0;points=[];" vertex="1" connectable="0" parent="ccX7Cr4w7bAmjQZFq0Yj-373">
          <mxGeometry x="-0.0255" y="1" relative="1" as="geometry">
            <mxPoint as="offset" />
          </mxGeometry>
        </mxCell>
        <mxCell id="ccX7Cr4w7bAmjQZFq0Yj-375" value="获取课堂学生信息" style="rhombus;whiteSpace=wrap;html=1;shadow=0;fontFamily=Helvetica;fontSize=12;align=center;strokeWidth=1;spacing=6;spacingTop=0;spacingLeft=20;spacingRight=20;" vertex="1" parent="WIyWlLk6GJQsqaUBKTNV-1">
          <mxGeometry x="1310" y="780" width="140" height="60" as="geometry" />
        </mxCell>
        <mxCell id="ccX7Cr4w7bAmjQZFq0Yj-376" value="toast 提示&amp;nbsp;&quot;抱歉出错了,请稍后再试&quot;" style="rounded=1;whiteSpace=wrap;html=1;fontSize=12;glass=0;strokeWidth=1;shadow=0;" vertex="1" parent="WIyWlLk6GJQsqaUBKTNV-1">
          <mxGeometry x="1520" y="800" width="130" height="30" as="geometry" />
        </mxCell>
        <mxCell id="ccX7Cr4w7bAmjQZFq0Yj-377" value="YES" style="edgeStyle=orthogonalEdgeStyle;rounded=0;orthogonalLoop=1;jettySize=auto;html=1;" edge="1" parent="WIyWlLk6GJQsqaUBKTNV-1" source="ccX7Cr4w7bAmjQZFq0Yj-380" target="ccX7Cr4w7bAmjQZFq0Yj-381">
          <mxGeometry relative="1" as="geometry" />
        </mxCell>
        <mxCell id="ccX7Cr4w7bAmjQZFq0Yj-378" style="edgeStyle=orthogonalEdgeStyle;rounded=0;orthogonalLoop=1;jettySize=auto;html=1;entryX=0.5;entryY=0;entryDx=0;entryDy=0;" edge="1" parent="WIyWlLk6GJQsqaUBKTNV-1" source="ccX7Cr4w7bAmjQZFq0Yj-380" target="ccX7Cr4w7bAmjQZFq0Yj-385">
          <mxGeometry relative="1" as="geometry" />
        </mxCell>
        <mxCell id="ccX7Cr4w7bAmjQZFq0Yj-379" value="NO" style="edgeLabel;html=1;align=center;verticalAlign=middle;resizable=0;points=[];" vertex="1" connectable="0" parent="ccX7Cr4w7bAmjQZFq0Yj-378">
          <mxGeometry x="-0.0639" y="2" relative="1" as="geometry">
            <mxPoint as="offset" />
          </mxGeometry>
        </mxCell>
        <mxCell id="ccX7Cr4w7bAmjQZFq0Yj-380" value="应用是否在后台？" style="rhombus;whiteSpace=wrap;html=1;shadow=0;fontFamily=Helvetica;fontSize=12;align=center;strokeWidth=1;spacing=6;spacingTop=0;spacingLeft=20;spacingRight=20;" vertex="1" parent="WIyWlLk6GJQsqaUBKTNV-1">
          <mxGeometry x="1306" y="1010" width="140" height="60" as="geometry" />
        </mxCell>
        <mxCell id="ccX7Cr4w7bAmjQZFq0Yj-381" value="App 状态不对" style="rounded=1;whiteSpace=wrap;html=1;fontSize=12;glass=0;strokeWidth=1;shadow=0;" vertex="1" parent="WIyWlLk6GJQsqaUBKTNV-1">
          <mxGeometry x="1520" y="1025" width="130" height="30" as="geometry" />
        </mxCell>
        <mxCell id="ccX7Cr4w7bAmjQZFq0Yj-382" value="YES" style="edgeStyle=orthogonalEdgeStyle;rounded=0;orthogonalLoop=1;jettySize=auto;html=1;exitX=1;exitY=0.5;exitDx=0;exitDy=0;" edge="1" parent="WIyWlLk6GJQsqaUBKTNV-1" source="ccX7Cr4w7bAmjQZFq0Yj-385" target="ccX7Cr4w7bAmjQZFq0Yj-386">
          <mxGeometry relative="1" as="geometry" />
        </mxCell>
        <mxCell id="ccX7Cr4w7bAmjQZFq0Yj-383" style="edgeStyle=orthogonalEdgeStyle;rounded=0;orthogonalLoop=1;jettySize=auto;html=1;entryX=0.5;entryY=0;entryDx=0;entryDy=0;" edge="1" parent="WIyWlLk6GJQsqaUBKTNV-1" source="ccX7Cr4w7bAmjQZFq0Yj-385" target="ccX7Cr4w7bAmjQZFq0Yj-332">
          <mxGeometry relative="1" as="geometry" />
        </mxCell>
        <mxCell id="ccX7Cr4w7bAmjQZFq0Yj-384" value="NO" style="edgeLabel;html=1;align=center;verticalAlign=middle;resizable=0;points=[];" vertex="1" connectable="0" parent="ccX7Cr4w7bAmjQZFq0Yj-383">
          <mxGeometry x="-0.2866" y="-5" relative="1" as="geometry">
            <mxPoint as="offset" />
          </mxGeometry>
        </mxCell>
        <mxCell id="ccX7Cr4w7bAmjQZFq0Yj-385" value="是否存在课堂？" style="rhombus;whiteSpace=wrap;html=1;shadow=0;fontFamily=Helvetica;fontSize=12;align=center;strokeWidth=1;spacing=6;spacingTop=0;spacingLeft=20;spacingRight=20;" vertex="1" parent="WIyWlLk6GJQsqaUBKTNV-1">
          <mxGeometry x="1306" y="1115" width="140" height="60" as="geometry" />
        </mxCell>
        <mxCell id="ccX7Cr4w7bAmjQZFq0Yj-386" value="toast 提示&amp;nbsp;&quot;设备有点卡顿，请退出app，重新打开&quot;" style="rounded=1;whiteSpace=wrap;html=1;fontSize=12;glass=0;strokeWidth=1;shadow=0;" vertex="1" parent="WIyWlLk6GJQsqaUBKTNV-1">
          <mxGeometry x="1520" y="1115" width="140" height="60" as="geometry" />
        </mxCell>
        <mxCell id="ccX7Cr4w7bAmjQZFq0Yj-394" style="edgeStyle=orthogonalEdgeStyle;rounded=0;orthogonalLoop=1;jettySize=auto;html=1;entryX=0.5;entryY=0;entryDx=0;entryDy=0;" edge="1" parent="WIyWlLk6GJQsqaUBKTNV-1" source="ccX7Cr4w7bAmjQZFq0Yj-392" target="ccX7Cr4w7bAmjQZFq0Yj-327">
          <mxGeometry relative="1" as="geometry" />
        </mxCell>
        <mxCell id="ccX7Cr4w7bAmjQZFq0Yj-392" value="-gotoLessonModel:" style="shape=step;perimeter=stepPerimeter;whiteSpace=wrap;html=1;fixedSize=1;fillColor=#ffe6cc;strokeColor=#d79b00;" vertex="1" parent="WIyWlLk6GJQsqaUBKTNV-1">
          <mxGeometry x="1280" y="-230" width="200" height="50" as="geometry" />
        </mxCell>
        <mxCell id="ccX7Cr4w7bAmjQZFq0Yj-396" style="edgeStyle=orthogonalEdgeStyle;rounded=0;orthogonalLoop=1;jettySize=auto;html=1;entryX=0.5;entryY=0;entryDx=0;entryDy=0;" edge="1" parent="WIyWlLk6GJQsqaUBKTNV-1" source="ccX7Cr4w7bAmjQZFq0Yj-395" target="ccX7Cr4w7bAmjQZFq0Yj-331">
          <mxGeometry relative="1" as="geometry" />
        </mxCell>
        <mxCell id="ccX7Cr4w7bAmjQZFq0Yj-395" value="- requestClassroomAccess" style="shape=step;perimeter=stepPerimeter;whiteSpace=wrap;html=1;fixedSize=1;fillColor=#ffe6cc;strokeColor=#d79b00;" vertex="1" parent="WIyWlLk6GJQsqaUBKTNV-1">
          <mxGeometry x="1280" y="-10" width="200" height="50" as="geometry" />
        </mxCell>
        <mxCell id="ccX7Cr4w7bAmjQZFq0Yj-399" style="edgeStyle=orthogonalEdgeStyle;rounded=0;orthogonalLoop=1;jettySize=auto;html=1;entryX=0.5;entryY=0;entryDx=0;entryDy=0;" edge="1" parent="WIyWlLk6GJQsqaUBKTNV-1" source="ccX7Cr4w7bAmjQZFq0Yj-397" target="ccX7Cr4w7bAmjQZFq0Yj-358">
          <mxGeometry relative="1" as="geometry" />
        </mxCell>
        <mxCell id="ccX7Cr4w7bAmjQZFq0Yj-397" value="-checkGotoClass" style="shape=step;perimeter=stepPerimeter;whiteSpace=wrap;html=1;fixedSize=1;fillColor=#ffe6cc;strokeColor=#d79b00;" vertex="1" parent="WIyWlLk6GJQsqaUBKTNV-1">
          <mxGeometry x="1280" y="200" width="200" height="50" as="geometry" />
        </mxCell>
        <mxCell id="ccX7Cr4w7bAmjQZFq0Yj-400" value="弹框提示系统版本低" style="rounded=1;whiteSpace=wrap;html=1;fontSize=12;glass=0;strokeWidth=1;shadow=0;" vertex="1" parent="WIyWlLk6GJQsqaUBKTNV-1">
          <mxGeometry x="1800" y="245" width="120" height="40" as="geometry" />
        </mxCell>
        <mxCell id="ccX7Cr4w7bAmjQZFq0Yj-402" value="弹框提示&quot;小朋友，你已经迟到了哦&quot;" style="rounded=1;whiteSpace=wrap;html=1;fontSize=12;glass=0;strokeWidth=1;shadow=0;" vertex="1" parent="WIyWlLk6GJQsqaUBKTNV-1">
          <mxGeometry x="1800" y="300" width="120" height="40" as="geometry" />
        </mxCell>
        <mxCell id="ccX7Cr4w7bAmjQZFq0Yj-404" value="toast 提示错误原因" style="rounded=1;whiteSpace=wrap;html=1;fontSize=12;glass=0;strokeWidth=1;shadow=0;" vertex="1" parent="WIyWlLk6GJQsqaUBKTNV-1">
          <mxGeometry x="1800" y="365" width="120" height="40" as="geometry" />
        </mxCell>
        <mxCell id="ccX7Cr4w7bAmjQZFq0Yj-407" style="edgeStyle=orthogonalEdgeStyle;rounded=0;orthogonalLoop=1;jettySize=auto;html=1;entryX=0.5;entryY=0;entryDx=0;entryDy=0;" edge="1" parent="WIyWlLk6GJQsqaUBKTNV-1" source="ccX7Cr4w7bAmjQZFq0Yj-406" target="ccX7Cr4w7bAmjQZFq0Yj-366">
          <mxGeometry relative="1" as="geometry" />
        </mxCell>
        <mxCell id="ccX7Cr4w7bAmjQZFq0Yj-406" value="-handleGrayDeviceAlert:" style="shape=step;perimeter=stepPerimeter;whiteSpace=wrap;html=1;fixedSize=1;fillColor=#ffe6cc;strokeColor=#d79b00;" vertex="1" parent="WIyWlLk6GJQsqaUBKTNV-1">
          <mxGeometry x="1280" y="450" width="200" height="50" as="geometry" />
        </mxCell>
        <mxCell id="ccX7Cr4w7bAmjQZFq0Yj-410" value="" style="edgeStyle=orthogonalEdgeStyle;rounded=0;orthogonalLoop=1;jettySize=auto;html=1;entryX=0.5;entryY=0;entryDx=0;entryDy=0;" edge="1" parent="WIyWlLk6GJQsqaUBKTNV-1" source="ccX7Cr4w7bAmjQZFq0Yj-408" target="ccX7Cr4w7bAmjQZFq0Yj-375">
          <mxGeometry relative="1" as="geometry">
            <mxPoint x="1390" y="780" as="targetPoint" />
          </mxGeometry>
        </mxCell>
        <mxCell id="ccX7Cr4w7bAmjQZFq0Yj-408" value="-prepareToGotoClass" style="shape=step;perimeter=stepPerimeter;whiteSpace=wrap;html=1;fixedSize=1;fillColor=#ffe6cc;strokeColor=#d79b00;" vertex="1" parent="WIyWlLk6GJQsqaUBKTNV-1">
          <mxGeometry x="1280" y="675" width="200" height="50" as="geometry" />
        </mxCell>
        <mxCell id="ccX7Cr4w7bAmjQZFq0Yj-412" style="edgeStyle=orthogonalEdgeStyle;rounded=0;orthogonalLoop=1;jettySize=auto;html=1;entryX=0.5;entryY=0;entryDx=0;entryDy=0;" edge="1" parent="WIyWlLk6GJQsqaUBKTNV-1" source="ccX7Cr4w7bAmjQZFq0Yj-411" target="ccX7Cr4w7bAmjQZFq0Yj-380">
          <mxGeometry relative="1" as="geometry" />
        </mxCell>
        <mxCell id="ccX7Cr4w7bAmjQZFq0Yj-411" value="-prepareToGotoClassWithUserData:&lt;br&gt;创建课堂" style="shape=step;perimeter=stepPerimeter;whiteSpace=wrap;html=1;fixedSize=1;fillColor=#ffe6cc;strokeColor=#d79b00;" vertex="1" parent="WIyWlLk6GJQsqaUBKTNV-1">
          <mxGeometry x="1241" y="910" width="270" height="50" as="geometry" />
        </mxCell>
      </root>
    </mxGraphModel>
  </diagram>
</mxfile>
